HIERARCHY
ROOT Hips
{
	OFFSET 0.00 0.00 0.00
	CHANNELS 6 Xposition Yposition Zposition Xrotation Yrotation Zrotation
	JOINT Spine
	{
		OFFSET 0.00000 7.50895 0.00000
		CHANNELS 3 Xrotation Yrotation Zrotation
		JOINT Head
		{
			OFFSET 0.00000 13.86115 0.00000
			CHANNELS 3 Xrotation Yrotation Zrotation
			End Site
			{
				OFFSET 0.00000 4.52755 0.00000
			}
		}
		JOINT LeftShoulder
		{
			OFFSET 0.00000 8.20478 0.00000
			CHANNELS 3 Xrotation Yrotation Zrotation
			JOINT LeftArm
			{
				OFFSET 6.63596 0.00000 0.00000
				CHANNELS 3 Xrotation Yrotation Zrotation
				JOINT LeftForeArm
				{
					OFFSET 10.27422 0.00000 0.00000
					CHANNELS 3 Yrotation Zrotation Xrotation
					JOINT LeftHand
					{
						OFFSET 8.52215 0.00000 0.00000
						CHANNELS 3 Xrotation Yrotation Zrotation
						JOINT LeftHandThumb1
						{
							OFFSET 0.00000 0.00000 0.00000
							CHANNELS 3 Xrotation Zrotation Yrotation
							End Site
							{
								OFFSET 0.00000 0.00000 3.93700
							}
						}
						End Site
						{
							OFFSET 3.93700 0.00000 0.00000
						}
					}
				}
			}
		}
		JOINT RightShoulder
		{
			OFFSET 0.00000 8.20478 0.00000
			CHANNELS 3 Xrotation Yrotation Zrotation
			JOINT RightArm
			{
				OFFSET -6.63596 0.00000 0.00000
				CHANNELS 3 Xrotation Yrotation Zrotation
				JOINT RightForeArm
				{
					OFFSET -10.27422 0.00000 0.00000
					CHANNELS 3 Yrotation Zrotation Xrotation
					JOINT RightHand
					{
						OFFSET -8.52215 0.00000 0.00000
						CHANNELS 3 Xrotation Yrotation Zrotation
						JOINT RightHandThumb1
						{
							OFFSET 0.00000 0.00000 0.00000
							CHANNELS 3 Xrotation Zrotation Yrotation
							End Site
							{
								OFFSET 0.00000 0.00000 3.93700
							}
						}
						End Site
						{
							OFFSET -3.93700 0.00000 0.00000
						}
					}
				}
			}
		}
	}
	JOINT LeftUpLeg
	{
		OFFSET 3.00056 0.00000 0.00000
		CHANNELS 3 Xrotation Yrotation Zrotation
		JOINT LeftLeg
		{
			OFFSET 0.00000 -16.49085 0.00000
			CHANNELS 3 Xrotation Yrotation Zrotation
			JOINT LeftFoot
			{
				OFFSET 0.00000 -14.55658 0.00000
				CHANNELS 3 Xrotation Yrotation Zrotation
				JOINT LeftToeBase
				{
					OFFSET 0.00000 -1.25038 4.66650
					CHANNELS 3 Xrotation Yrotation Zrotation
					End Site
					{
						OFFSET 0.00000 0.00000 2.95275
					}
				}
			}
		}
	}
	JOINT RightUpLeg
	{
		OFFSET -3.00056 0.00000 0.00000
		CHANNELS 3 Xrotation Yrotation Zrotation
		JOINT RightLeg
		{
			OFFSET 0.00000 -16.49085 0.00000
			CHANNELS 3 Xrotation Yrotation Zrotation
			JOINT RightFoot
			{
				OFFSET 0.00000 -14.55658 0.00000
				CHANNELS 3 Xrotation Yrotation Zrotation
				JOINT RightToeBase
				{
					OFFSET 0.00000 -1.25038 4.66650
					CHANNELS 3 Xrotation Yrotation Zrotation
					End Site
					{
						OFFSET 0.00000 0.00000 2.95275
					}
				}
			}
		}
	}
}
MOTION
Frames: 15
Frame Time: 0.008333
 -15.5784 32.9504 -4.5608 21.2089 30.5874 -4.1156 -21.8391 5.4628 4.2314 11.8555 -1.0555 -0.7554 23.9529 17.6857 5.7635 -13.7608 -30.1150 -81.5481 -30.1699 -0.0000 6.4115 1.2384 25.9941 -2.8238 33.1476 -0.0000 26.2537 -17.0519 -11.7773 -29.4091 7.3158 -22.5267 69.1945 127.7539 0.0000 19.5409 -1.3156 -13.4879 -5.6233 32.8623 0.0000 -24.3270 -6.1668 14.2974 1.5339 39.7458 -0.0000 -0.0000 41.2247 5.3193 -22.7321 27.2453 0.0000 0.0000 -15.9154 -2.3261 1.1499 0.9526 -0.0000 -0.0000 -10.6937 -10.1199 -9.8031 -0.3287 -0.0000 -0.0000
 -15.5938 32.9387 -4.5640 21.1281 30.8504 -4.2482 -21.6750 5.3637 4.4578 11.6573 -1.1460 -0.9012 23.8652 17.6016 5.7508 -13.7602 -29.8014 -81.6339 -30.7619 -0.0000 6.9021 1.3518 25.9346 -3.0884 33.1476 -0.0000 26.2537 -17.1123 -11.6427 -29.5069 7.3960 -22.8368 69.2216 127.9085 0.0000 19.6911 -1.3050 -13.5707 -5.5452 32.8623 0.0000 -24.3270 -7.0328 14.2933 2.0359 42.8837 -0.0000 0.0000 41.0436 5.5499 -23.0570 28.0538 -0.0000 -0.0000 -15.8064 -2.6187 1.2728 0.9446 0.0000 -0.0000 -10.7496 -10.0722 -9.9153 -0.2676 0.0000 -0.0000
 -15.6109 32.9271 -4.5691 21.0584 31.0994 -4.4261 -21.5196 5.2660 4.7445 11.4525 -1.2555 -1.0552 23.8429 17.5628 5.6931 -13.8352 -29.6695 -81.7225 -31.3142 -0.0000 7.2214 1.3300 26.0258 -3.0288 33.1476 -0.0000 26.2537 -17.1314 -11.5346 -29.6080 7.4208 -23.1232 69.2231 128.0535 0.0000 19.7807 -1.3147 -13.6341 -5.5608 32.8623 0.0000 -24.3270 -7.9241 14.3145 2.5848 46.0879 0.0000 -0.0000 40.9749 5.6751 -22.6510 27.6463 -0.0000 0.0000 -15.6442 -2.7876 1.4401 0.7876 0.0000 -0.0000 -10.7027 -10.1563 -9.9858 -0.2610 0.0000 0.0000
 -15.6243 32.9172 -4.5771 21.0093 31.3215 -4.5477 -21.3913 5.2508 4.9562 11.2643 -1.3870 -1.1672 23.7965 17.4791 5.6589 -13.8486 -29.5275 -81.7659 -31.8935 -0.0000 7.4811 1.2364 26.0845 -2.8102 33.1476 -0.0000 26.2537 -17.0994 -11.4874 -29.6927 7.4046 -23.4176 69.2252 128.2001 0.0000 19.8006 -1.2893 -13.6546 -5.4459 32.8623 0.0000 -24.3270 -8.8028 14.3368 3.0650 49.3153 -0.0000 0.0000 40.9525 5.9424 -22.6159 27.5542 0.0000 0.0000 -15.4893 -2.9086 1.5375 0.5918 -0.0000 0.0000 -10.6462 -10.2398 -10.0080 -0.2729 0.0000 0.0000
 -15.6372 32.9085 -4.5843 20.9672 31.5558 -4.6884 -21.2766 5.2113 5.1842 11.0906 -1.5319 -1.3038 23.7640 17.4251 5.6000 -13.8921 -29.4466 -81.8089 -32.3807 -0.0000 7.6386 1.2521 26.0577 -2.8485 33.1476 -0.0000 26.2537 -17.0900 -11.4260 -29.7555 7.3838 -23.6860 69.1681 128.3216 0.0000 19.7924 -1.2899 -13.6606 -5.4461 32.8623 0.0000 -24.3270 -9.6685 14.3528 3.5754 52.5296 0.0000 -0.0000 40.8488 6.1411 -22.7479 28.2081 -0.0000 -0.0000 -15.3346 -3.0923 1.6401 0.4008 -0.0000 0.0000 -10.5749 -10.2702 -9.9395 -0.3177 -0.0000 -0.0000
 -15.6519 32.8996 -4.5898 20.9356 31.7442 -4.8327 -21.1846 5.2278 5.4031 10.9291 -1.6831 -1.3817 23.7594 17.3576 5.5533 -13.9242 -29.3295 -81.8382 -32.9095 -0.0000 7.9027 1.2417 26.1209 -2.8185 33.1476 -0.0000 26.2537 -17.0636 -11.4130 -29.8066 7.3223 -23.9380 69.1015 128.4176 0.0000 19.8171 -1.2687 -13.6460 -5.3626 32.8623 0.0000 -24.3270 -10.5947 14.6321 4.2021 55.7911 -0.0000 -0.0000 40.7869 6.3859 -22.8430 29.1239 -0.0000 -0.0000 -15.1893 -3.2531 1.7629 0.1946 0.0000 0.0000 -10.5015 -10.3020 -9.9089 -0.3223 0.0000 0.0000
 -15.6575 32.8979 -4.6005 20.9542 31.8958 -4.8577 -21.1617 5.3158 5.4502 10.8512 -1.8336 -1.3793 23.7881 17.3519 5.4943 -13.9907 -29.2964 -81.8261 -33.3304 -0.0000 8.1222 1.0769 26.2472 -2.4339 33.1476 -0.0000 26.2537 -17.0372 -11.4114 -29.7870 7.2977 -24.1128 69.0000 128.5207 0.0000 19.7573 -1.2723 -13.6871 -5.3623 32.8623 0.0000 -24.3270 -11.3288 14.6366 4.5024 58.7634 0.0000 0.0000 40.9068 6.5608 -23.4012 28.6309 -0.0000 -0.0000 -15.1702 -3.5541 1.7305 0.1427 0.0000 0.0000 -10.4964 -10.1428 -9.8174 -0.3519 -0.0000 -0.0000
 -15.6619 32.8970 -4.6109 20.9983 32.0362 -4.8878 -21.1793 5.3858 5.4778 10.8116 -1.9564 -1.3224 23.8319 17.3494 5.4712 -14.0439 -29.2329 -81.8453 -33.7200 -0.0000 8.3399 1.0181 26.2415 -2.3016 33.1476 -0.0000 26.2537 -16.9819 -11.4439 -29.7656 7.2155 -24.2252 68.9148 128.5731 0.0000 19.7191 -1.2762 -13.7028 -5.3726 32.8623 0.0000 -24.3270 -12.0959 14.7703 4.8227 61.7865 -0.0000 0.0000 40.7509 6.7403 -23.3894 28.8524 0.0000 0.0000 -15.1998 -3.9160 1.6945 0.1514 0.0000 0.0000 -10.5404 -9.9303 -9.7756 -0.3089 0.0000 0.0000
 -15.6740 32.8971 -4.6195 21.0740 32.1381 -4.9500 -21.2397 5.4897 5.5001 10.8035 -2.0895 -1.2214 23.9118 17.3528 5.4642 -14.1240 -29.1918 -81.8381 -34.0853 -0.0000 8.4556 0.9999 26.2871 -2.2568 33.1476 -0.0000 26.2537 -16.9346 -11.4756 -29.7239 7.1601 -24.3706 68.8485 128.6165 0.0000 19.6720 -1.2577 -13.6923 -5.2991 32.8623 0.0000 -24.3270 -12.9031 14.9433 5.1887 64.7916 0.0000 -0.0000 40.7032 6.9310 -23.4419 29.4698 0.0000 -0.0000 -15.0430 -3.6066 1.6983 -0.3405 0.0000 -0.0000 -10.3046 -10.3101 -9.6831 -0.2774 -0.0000 -0.0000
 -15.6830 32.8981 -4.6281 21.1518 32.1912 -4.9681 -21.3118 5.6449 5.4674 10.8229 -2.2282 -1.0903 23.9149 17.3472 5.4976 -14.0938 -29.1061 -81.8176 -34.4523 -0.0000 8.5828 1.0225 26.3346 -2.3039 33.1476 -0.0000 26.2537 -16.8841 -11.5486 -29.6676 7.0794 -24.4380 68.7948 128.6137 0.0000 19.6250 -1.2374 -13.7142 -5.2057 32.8623 0.0000 -24.3270 -13.6425 15.0962 5.4967 67.6939 0.0000 -0.0000 40.5367 7.1625 -23.5207 30.4078 -0.0000 -0.0000 -14.9708 -3.4773 1.6611 -0.6621 0.0000 0.0000 -10.1470 -10.4571 -9.5852 -0.2410 0.0000 0.0000
 -15.6914 32.9003 -4.6361 21.2271 32.1946 -4.9708 -21.3983 5.8271 5.4248 10.8789 -2.3563 -0.9140 23.9265 17.3721 5.5382 -14.0814 -29.0816 -81.8038 -34.7210 -0.0000 8.6413 0.9796 26.2992 -2.2101 33.1476 -0.0000 26.2537 -16.8542 -11.6115 -29.5996 7.0275 -24.4596 68.7363 128.5950 0.0000 19.6154 -1.2402 -13.6989 -5.2230 32.8623 0.0000 -24.3270 -14.3196 15.2878 5.7598 70.5116 0.0000 -0.0000 40.4903 7.1335 -23.5413 30.3376 0.0000 -0.0000 -14.9819 -3.5600 1.6311 -0.8104 0.0000 -0.0000 -10.0582 -10.3869 -9.5638 -0.1835 -0.0000 -0.0000
 -15.7002 32.9047 -4.6459 21.3235 32.1508 -4.9527 -21.5074 6.0203 5.3484 10.9690 -2.4290 -0.7122 23.9615 17.4289 5.5723 -14.0778 -29.0507 -81.7804 -34.9451 -0.0000 8.6736 0.9314 26.2792 -2.1030 33.1476 -0.0000 26.2537 -16.8328 -11.6700 -29.5200 6.9710 -24.4384 68.6981 128.5532 0.0000 19.6103 -1.2213 -13.6777 -5.1516 32.8623 0.0000 -24.3270 -14.9881 15.5287 5.9836 73.2552 0.0000 0.0000 40.3841 7.2031 -23.6014 30.7681 -0.0000 -0.0000 -15.0458 -3.8450 1.5951 -0.9209 0.0000 0.0000 -9.9596 -10.1909 -9.2978 -0.2319 0.0000 -0.0000
 -15.7082 32.9078 -4.6524 21.3875 32.0683 -4.8972 -21.5901 6.2444 5.2472 11.0669 -2.4974 -0.5031 24.0019 17.4921 5.6119 -14.0579 -29.0383 -81.7252 -35.1496 -0.0000 8.6543 0.9237 26.2785 -2.0856 33.1476 -0.0000 26.2537 -16.8354 -11.7275 -29.4471 6.9295 -24.3781 68.7025 128.5002 0.0000 19.6316 -1.2170 -13.7569 -5.1051 32.8623 0.0000 -24.3270 -15.5676 15.8186 6.1787 75.9066 -0.0000 -0.0000 40.4730 7.2957 -24.1052 30.0824 -0.0000 -0.0000 -14.9120 -3.3604 1.5328 -1.4109 0.0000 -0.0000 -9.6822 -10.5487 -9.1995 -0.1919 0.0000 0.0000
 -15.7059 32.9125 -4.6585 21.4073 31.9493 -4.7803 -21.6393 6.4757 5.1476 11.1640 -2.5597 -0.3562 24.0584 17.5571 5.6202 -14.0388 -29.0129 -81.6798 -35.2750 -0.0000 8.6091 0.9383 26.2565 -2.1202 33.1476 -0.0000 26.2537 -16.8566 -11.7477 -29.3924 6.9149 -24.3035 68.7047 128.4483 0.0000 19.6533 -1.1940 -13.7910 -4.9969 32.8623 0.0000 -24.3270 -16.0296 16.1655 6.3130 78.4421 -0.0000 -0.0000 40.3487 7.5644 -24.0339 30.7639 -0.0000 0.0000 -14.9778 -3.5358 1.4434 -1.3741 0.0000 0.0000 -9.6784 -10.2765 -9.2176 -0.1877 -0.0000 -0.0000
 -15.7013 32.9177 -4.6625 21.3905 31.8288 -4.6421 -21.6546 6.6928 5.0593 11.2662 -2.6089 -0.2489 24.1213 17.5995 5.6071 -14.0210 -28.9353 -81.6364 -35.3392 -0.0000 8.5974 1.0088 26.2135 -2.2828 33.1476 -0.0000 26.2537 -16.8767 -11.7580 -29.3527 6.9112 -24.2102 68.7298 128.3940 0.0000 19.7394 -1.1743 -13.7653 -4.9235 32.8623 0.0000 -24.3270 -16.4606 16.5691 6.4502 80.9155 -0.0000 -0.0000 40.4413 7.8422 -24.3738 30.5202 -0.0000 -0.0000 -15.0458 -3.8326 1.3543 -1.2545 -0.0000 -0.0000 -9.7046 -9.8915 -9.2849 -0.2101 0.0000 0.0000
